<svg version="1.1" id="Layer_1" xmlns="http://www.w3.org/2000/svg" xmlns:xlink="http://www.w3.org/1999/xlink" x="0px" y="0px"
	 width="100%" viewBox="0 0 225 225" enable-background="new 0 0 225 225" xml:space="preserve">
<path fill="#FFFFFF" opacity="1.000000" stroke="none" 
	d="
M125.000000,226.000000 
	C83.333336,226.000000 42.166672,226.000000 1.000005,226.000000 
	C1.000004,151.000000 1.000004,76.000015 1.000002,1.000016 
	C75.999992,1.000010 150.999985,1.000010 225.999969,1.000005 
	C225.999985,75.999985 225.999985,150.999969 226.000000,225.999969 
	C192.500000,226.000000 159.000000,226.000000 125.000000,226.000000 
M28.999540,118.267570 
	C29.988752,129.889877 32.147560,141.446884 37.648247,151.643356 
	C44.531609,164.402817 53.817505,175.538620 66.494385,183.249695 
	C83.243561,193.437866 101.061432,198.601807 120.979027,196.117401 
	C142.482834,193.435120 160.546875,184.341019 174.292511,167.868881 
	C190.469437,148.483185 197.178421,125.895409 192.944794,100.680588 
	C189.379608,79.446953 178.793579,62.059856 161.803635,49.024048 
	C142.999191,34.596043 121.434204,28.605192 98.075706,33.277840 
	C86.867897,35.519859 75.547195,39.479313 65.612091,45.043667 
	C58.319958,49.127773 52.809219,56.757599 47.188004,63.386738 
	C34.049656,78.880867 28.874540,97.256516 28.999540,118.267570 
z"/>
<path fill="#F8FAFF" opacity="1.000000" stroke="none" 
	d="
M28.999058,117.795761 
	C28.874540,97.256516 34.049656,78.880867 47.188004,63.386738 
	C52.809219,56.757599 58.319958,49.127773 65.612091,45.043667 
	C75.547195,39.479313 86.867897,35.519859 98.075706,33.277840 
	C121.434204,28.605192 142.999191,34.596043 161.803635,49.024048 
	C178.793579,62.059856 189.379608,79.446953 192.944794,100.680588 
	C197.178421,125.895409 190.469437,148.483185 174.292511,167.868881 
	C160.546875,184.341019 142.482834,193.435120 120.979027,196.117401 
	C101.061432,198.601807 83.243561,193.437866 66.494385,183.249695 
	C53.817505,175.538620 44.531609,164.402817 37.648247,151.643356 
	C32.147560,141.446884 29.988752,129.889877 28.999058,117.795761 
M54.001789,103.001160 
	C54.001789,103.001160 53.997364,102.987747 53.411945,103.585999 
	C53.279110,110.383888 53.146278,117.181770 53.256733,124.547256 
	C53.634449,125.414406 54.167358,126.247513 54.366184,127.153900 
	C56.693104,137.761673 61.025803,147.429535 68.747826,155.153275 
	C81.062592,167.470795 95.845276,173.465775 113.559647,173.139893 
	C133.374664,172.775406 148.101715,163.365265 159.561752,148.460068 
	C169.486252,135.552032 172.943359,120.426109 169.924423,104.292374 
	C166.273514,84.781288 155.452454,70.190788 137.656052,61.446705 
	C126.310654,55.872253 114.514641,53.632862 101.380493,56.511810 
	C93.054138,58.336914 85.721268,61.415302 78.282433,65.019371 
	C73.550476,67.311974 72.003731,74.085045 65.546967,73.862137 
	C65.331520,73.854698 65.010117,75.131516 64.845993,75.834877 
	C64.590912,76.927986 64.657394,78.151909 64.190300,79.130829 
	C60.855042,86.120773 57.419022,93.062645 54.007576,100.764847 
	C54.000977,101.510750 53.994377,102.256660 54.001789,103.001160 
z"/>
<path fill="#E6F0FE" opacity="1.000000" stroke="none" 
	d="
M54.015045,100.019806 
	C57.419022,93.062645 60.855042,86.120773 64.190300,79.130829 
	C64.657394,78.151909 64.590912,76.927986 64.845993,75.834877 
	C65.010117,75.131516 65.331520,73.854698 65.546967,73.862137 
	C72.003731,74.085045 73.550476,67.311974 78.282433,65.019371 
	C85.721268,61.415302 93.054138,58.336914 101.380493,56.511810 
	C114.514641,53.632862 126.310654,55.872253 137.656052,61.446705 
	C155.452454,70.190788 166.273514,84.781288 169.924423,104.292374 
	C172.943359,120.426109 169.486252,135.552032 159.561752,148.460068 
	C148.101715,163.365265 133.374664,172.775406 113.559647,173.139893 
	C95.845276,173.465775 81.062592,167.470795 68.747826,155.153275 
	C61.025803,147.429535 56.693104,137.761673 54.366184,127.153900 
	C54.167358,126.247513 53.634449,125.414406 53.431190,123.972504 
	C53.736217,116.594414 53.866791,109.791077 53.997364,102.987747 
	C53.997364,102.987747 54.001789,103.001160 54.249489,102.824379 
	C54.336472,101.771667 54.175758,100.895737 54.015045,100.019806 
M145.871964,83.283562 
	C142.512634,81.342361 139.156799,79.395103 135.793350,77.461044 
	C122.969589,70.087029 109.467934,67.585907 95.428963,73.153679 
	C89.130577,75.651573 83.363144,79.497887 77.406929,82.825668 
	C77.039551,83.030922 77.130302,84.056175 76.135292,84.884407 
	C74.880165,84.967056 73.625038,85.049706 71.843414,85.167023 
	C71.843414,90.966873 71.843414,96.488350 71.117775,102.178604 
	C67.471664,109.985336 68.725792,118.030342 70.101578,126.038300 
	C70.234314,126.810959 71.581802,127.374924 72.734215,128.659836 
	C76.025780,144.943649 93.397697,160.872513 109.507416,162.328903 
	C110.466927,162.415649 111.479256,162.238632 112.432396,162.027863 
	C129.814835,158.184235 140.613373,146.109436 150.446136,131.654541 
	C156.647873,118.120522 156.236572,104.888199 148.398438,91.146461 
	C147.483322,89.074112 150.199371,85.637344 146.005493,84.394417 
	C146.005493,84.394417 146.000000,83.994133 145.871964,83.283562 
z"/>
<path fill="#D7E6FE" opacity="1.000000" stroke="none" 
	d="
M53.704655,103.286873 
	C53.866791,109.791077 53.736217,116.594414 53.309544,123.688705 
	C53.146278,117.181770 53.279110,110.383888 53.704655,103.286873 
z"/>
<path fill="#D7E6FE" opacity="1.000000" stroke="none" 
	d="
M54.011311,100.392326 
	C54.175758,100.895737 54.336472,101.771667 54.242485,102.825081 
	C53.994377,102.256660 54.000977,101.510750 54.011311,100.392326 
z"/>
<path fill="#0EA1E9" opacity="1.000000" stroke="none" 
	d="
M146.011734,84.794647 
	C150.199371,85.637344 147.483322,89.074112 148.383667,91.977066 
	C148.267395,104.431137 148.102386,116.054832 148.144196,127.677780 
	C148.149460,129.142670 149.242340,130.603638 149.831299,132.066422 
	C140.613373,146.109436 129.814835,158.184235 112.432396,162.027863 
	C111.479256,162.238632 110.466927,162.415649 109.507416,162.328903 
	C93.397697,160.872513 76.025780,144.943649 72.551468,127.887894 
	C72.193626,118.747246 72.018517,110.378540 71.843414,102.009834 
	C71.843414,96.488350 71.843414,90.966873 71.843414,85.167023 
	C73.625038,85.049706 74.880165,84.967056 76.975479,84.851959 
	C80.861595,84.455322 83.907532,84.091141 87.351257,83.801086 
	C95.525841,81.176926 103.302628,78.478630 111.340073,76.011963 
	C118.897499,81.486855 127.214233,83.468658 136.401001,83.998596 
	C138.866989,84.317451 140.953827,84.518539 143.405365,84.810989 
	C144.517288,84.866455 145.264511,84.830551 146.011734,84.794647 
M75.208145,123.108551 
	C75.707695,125.879555 75.976883,128.716385 76.746712,131.410156 
	C80.059433,143.001938 88.305077,150.174255 98.794106,155.015778 
	C102.651688,156.796371 106.947784,158.955856 110.967438,158.811691 
	C123.952003,158.345978 141.753189,144.116104 143.671478,131.058105 
	C145.726013,117.072655 145.157104,102.701797 145.713821,88.976547 
	C137.400696,87.536537 130.226257,86.384796 123.093391,85.016365 
	C119.949501,84.413216 100.506676,84.433426 97.400864,85.024765 
	C90.134995,86.408165 82.826508,87.567673 75.202057,88.874969 
	C75.202057,99.924934 75.202057,111.053490 75.208145,123.108551 
z"/>
<path fill="#EDF4FF" opacity="1.000000" stroke="none" 
	d="
M143.040649,84.719627 
	C140.953827,84.518539 138.866989,84.317451 136.358765,83.655045 
	C134.674164,81.987617 133.614746,80.297699 132.110413,79.664108 
	C127.155579,77.577232 122.039658,75.872833 116.523224,74.012863 
	C107.089584,73.315613 98.570251,74.793869 90.879684,79.650223 
	C89.330551,80.628456 88.250031,82.348770 86.953461,83.726952 
	C83.907532,84.091141 80.861595,84.455322 77.411781,84.759705 
	C77.130302,84.056175 77.039551,83.030922 77.406929,82.825668 
	C83.363144,79.497887 89.130577,75.651573 95.428963,73.153679 
	C109.467934,67.585907 122.969589,70.087029 135.793350,77.461044 
	C139.156799,79.395103 142.512634,81.342361 145.617432,83.640579 
	C144.588806,84.238274 143.814728,84.478951 143.040649,84.719627 
z"/>
<path fill="#DCEBFD" opacity="1.000000" stroke="none" 
	d="
M150.138718,131.860474 
	C149.242340,130.603638 148.149460,129.142670 148.144196,127.677780 
	C148.102386,116.054832 148.267395,104.431137 148.502594,92.395760 
	C156.236572,104.888199 156.647873,118.120522 150.138718,131.860474 
z"/>
<path fill="#F0F6FF" opacity="1.000000" stroke="none" 
	d="
M71.480591,102.094223 
	C72.018517,110.378540 72.193626,118.747246 72.367065,127.575859 
	C71.581802,127.374924 70.234314,126.810959 70.101578,126.038300 
	C68.725792,118.030342 67.471664,109.985336 71.480591,102.094223 
z"/>
<path fill="#DCEBFD" opacity="1.000000" stroke="none" 
	d="
M143.405365,84.810989 
	C143.814728,84.478951 144.588806,84.238274 145.681442,83.995865 
	C146.000000,83.994133 146.005493,84.394417 146.008606,84.594528 
	C145.264511,84.830551 144.517288,84.866455 143.405365,84.810989 
z"/>
<path fill="#F2F9FE" opacity="1.000000" stroke="none" 
	d="
M75.205101,122.645294 
	C75.202057,111.053490 75.202057,99.924934 75.202057,88.874969 
	C82.826508,87.567673 90.134995,86.408165 97.400864,85.024765 
	C100.506676,84.433426 119.949501,84.413216 123.093391,85.016365 
	C130.226257,86.384796 137.400696,87.536537 145.713821,88.976547 
	C145.157104,102.701797 145.726013,117.072655 143.671478,131.058105 
	C141.753189,144.116104 123.952003,158.345978 110.967438,158.811691 
	C106.947784,158.955856 102.651688,156.796371 98.794106,155.015778 
	C88.305077,150.174255 80.059433,143.001938 76.746712,131.410156 
	C75.976883,128.716385 75.707695,125.879555 75.205101,122.645294 
M140.339844,126.536560 
	C140.339844,115.425636 140.339844,104.314713 140.339844,93.138351 
	C134.569275,92.076752 128.107040,91.998421 122.640068,89.626289 
	C114.077766,85.911072 106.475998,85.918419 97.921547,89.646355 
	C92.491806,92.012581 86.063553,92.087502 79.852280,93.232513 
	C79.852280,101.653351 79.851265,109.796219 79.852486,117.939079 
	C79.855194,136.054535 91.244087,150.495010 108.870255,154.699188 
	C109.660492,154.887695 110.530914,155.032593 111.316345,154.904846 
	C123.658440,152.897659 137.312485,139.846161 140.339844,126.536560 
z"/>
<path fill="#D3E5FD" opacity="1.000000" stroke="none" 
	d="
M116.985603,74.021545 
	C122.039658,75.872833 127.155579,77.577232 132.110413,79.664108 
	C133.614746,80.297699 134.674164,81.987617 135.979599,83.537277 
	C127.214233,83.468658 118.897499,81.486855 111.607285,75.778419 
	C113.404434,74.882675 115.195015,74.452110 116.985603,74.021545 
z"/>
<path fill="#D0E3FD" opacity="1.000000" stroke="none" 
	d="
M116.523224,74.012863 
	C115.195015,74.452110 113.404434,74.882675 111.346634,75.546783 
	C103.302628,78.478630 95.525841,81.176926 87.351257,83.801086 
	C88.250031,82.348770 89.330551,80.628456 90.879684,79.650223 
	C98.570251,74.793869 107.089584,73.315613 116.523224,74.012863 
z"/>
<path fill="#02A0E9" opacity="1.000000" stroke="none" 
	d="
M140.257889,126.956253 
	C137.312485,139.846161 123.658440,152.897659 111.316345,154.904846 
	C110.530914,155.032593 109.660492,154.887695 108.870255,154.699188 
	C91.244087,150.495010 79.855194,136.054535 79.852486,117.939079 
	C79.851265,109.796219 79.852280,101.653351 79.852280,93.232513 
	C86.063553,92.087502 92.491806,92.012581 97.921547,89.646355 
	C106.475998,85.918419 114.077766,85.911072 122.640068,89.626289 
	C128.107040,91.998421 134.569275,92.076752 140.339844,93.138351 
	C140.339844,104.314713 140.339844,115.425636 140.257889,126.956253 
M110.029648,120.920746 
	C110.029648,131.160004 110.029648,141.399261 110.029648,151.693665 
	C124.129883,150.386475 141.694138,132.301437 137.127167,120.020393 
	C128.214844,120.020393 119.096893,120.020393 110.018562,119.081200 
	C110.018562,108.874733 110.018562,98.668259 110.018562,88.849274 
	C100.416382,91.343346 91.523224,93.653259 82.375778,96.029221 
	C82.375778,103.617790 82.375778,111.507805 82.375778,119.979248 
	C91.805450,119.979248 100.912598,119.979248 110.029648,120.920746 
z"/>
<path fill="#0E6EB8" opacity="1.000000" stroke="none" 
	d="
M110.019745,119.979248 
	C100.912598,119.979248 91.805450,119.979248 82.375778,119.979248 
	C82.375778,111.507805 82.375778,103.617790 82.375778,96.029221 
	C91.523224,93.653259 100.416382,91.343346 110.018562,88.849274 
	C110.018562,98.668259 110.018562,108.874733 110.009201,119.540733 
	C109.999832,120.000267 110.019745,119.979248 110.019745,119.979248 
z"/>
<path fill="#0E6FB9" opacity="1.000000" stroke="none" 
	d="
M109.989388,120.010330 
	C119.096893,120.020393 128.214844,120.020393 137.127167,120.020393 
	C141.694138,132.301437 124.129883,150.386475 110.029648,151.693665 
	C110.029648,141.399261 110.029648,131.160004 110.024696,120.449997 
	C110.019745,119.979248 109.999832,120.000267 109.989388,120.010330 
z"/>
</svg>